<svg version="1.1" viewBox="0.0 0.0 480.0 240.0" fill="none" stroke="none" stroke-linecap="square" stroke-miterlimit="10" xmlns:xlink="http://www.w3.org/1999/xlink" xmlns="http://www.w3.org/2000/svg"><clipPath id="g9fc358e7d4_0_49.0"><path d="m0 0l480.0 0l0 240.0l-480.0 0l0 -240.0z" clip-rule="nonzero"/></clipPath><g clip-path="url(#g9fc358e7d4_0_49.0)"><path fill="#000000" fill-opacity="0.0" d="m0 0l480.0 0l0 240.0l-480.0 0z" fill-rule="evenodd"/><g filter="url(#shadowFilter-g9fc358e7d4_0_49.1)"><use xlink:href="#g9fc358e7d4_0_49.1" transform=""/></g><defs><filter id="shadowFilter-g9fc358e7d4_0_49.1" filterUnits="userSpaceOnUse"><feGaussianBlur in="SourceAlpha" stdDeviation="1.5" result="blur"/><feComponentTransfer in="blur" color-interpolation-filters="sRGB"><feFuncR type="linear" slope="0" intercept="0.9372549"/><feFuncG type="linear" slope="0" intercept="0.9372549"/><feFuncB type="linear" slope="0" intercept="0.9372549"/><feFuncA type="linear" slope="0.5" intercept="0"/></feComponentTransfer></filter></defs><g id="g9fc358e7d4_0_49.1"><path fill="#b45f06" d="m317.83466 93.080055l0 -64.62993l33.102356 64.62993z" fill-rule="evenodd"/></g><g filter="url(#shadowFilter-g9fc358e7d4_0_49.2)"><use xlink:href="#g9fc358e7d4_0_49.2" transform=""/></g><defs><filter id="shadowFilter-g9fc358e7d4_0_49.2" filterUnits="userSpaceOnUse"><feGaussianBlur in="SourceAlpha" stdDeviation="1.5" result="blur"/><feComponentTransfer in="blur" color-interpolation-filters="sRGB"><feFuncR type="linear" slope="0" intercept="0.9372549"/><feFuncG type="linear" slope="0" intercept="0.9372549"/><feFuncB type="linear" slope="0" intercept="0.9372549"/><feFuncA type="linear" slope="0.5" intercept="0"/></feComponentTransfer></filter></defs><g id="g9fc358e7d4_0_49.2"><path fill="#f1c232" d="m310.937 93.080055l0 -64.62993l-33.102356 64.62993z" fill-rule="evenodd"/></g><g filter="url(#shadowFilter-g9fc358e7d4_0_49.3)"><use xlink:href="#g9fc358e7d4_0_49.3" transform=""/></g><defs><filter id="shadowFilter-g9fc358e7d4_0_49.3" filterUnits="userSpaceOnUse"><feGaussianBlur in="SourceAlpha" stdDeviation="1.5" result="blur"/><feComponentTransfer in="blur" color-interpolation-filters="sRGB"><feFuncR type="linear" slope="0" intercept="0.9372549"/><feFuncG type="linear" slope="0" intercept="0.9372549"/><feFuncB type="linear" slope="0" intercept="0.9372549"/><feFuncA type="linear" slope="0.5" intercept="0"/></feComponentTransfer></filter></defs><g id="g9fc358e7d4_0_49.3"><path fill="#cc4125" d="m261.83466 109.080055l0 -64.62993l33.102356 64.62993z" fill-rule="evenodd"/></g><g filter="url(#shadowFilter-g9fc358e7d4_0_49.4)"><use xlink:href="#g9fc358e7d4_0_49.4" transform=""/></g><defs><filter id="shadowFilter-g9fc358e7d4_0_49.4" filterUnits="userSpaceOnUse"><feGaussianBlur in="SourceAlpha" stdDeviation="1.5" result="blur"/><feComponentTransfer in="blur" color-interpolation-filters="sRGB"><feFuncR type="linear" slope="0" intercept="0.9372549"/><feFuncG type="linear" slope="0" intercept="0.9372549"/><feFuncB type="linear" slope="0" intercept="0.9372549"/><feFuncA type="linear" slope="0.5" intercept="0"/></feComponentTransfer></filter></defs><g id="g9fc358e7d4_0_49.4"><path fill="#e69138" d="m254.93701 109.080055l0 -64.62993l-33.10237 64.62993z" fill-rule="evenodd"/></g><g filter="url(#shadowFilter-g9fc358e7d4_0_49.5)"><use xlink:href="#g9fc358e7d4_0_49.5" transform=""/></g><defs><filter id="shadowFilter-g9fc358e7d4_0_49.5" filterUnits="userSpaceOnUse"><feGaussianBlur in="SourceAlpha" stdDeviation="1.5" result="blur"/><feComponentTransfer in="blur" color-interpolation-filters="sRGB"><feFuncR type="linear" slope="0" intercept="0.9372549"/><feFuncG type="linear" slope="0" intercept="0.9372549"/><feFuncB type="linear" slope="0" intercept="0.9372549"/><feFuncA type="linear" slope="0.5" intercept="0"/></feComponentTransfer></filter></defs><g id="g9fc358e7d4_0_49.5"><path fill="#cc0000" d="m173.83464 93.080055l0 -64.62993l33.10237 64.62993z" fill-rule="evenodd"/></g><g filter="url(#shadowFilter-g9fc358e7d4_0_49.6)"><use xlink:href="#g9fc358e7d4_0_49.6" transform=""/></g><defs><filter id="shadowFilter-g9fc358e7d4_0_49.6" filterUnits="userSpaceOnUse"><feGaussianBlur in="SourceAlpha" stdDeviation="1.5" result="blur"/><feComponentTransfer in="blur" color-interpolation-filters="sRGB"><feFuncR type="linear" slope="0" intercept="0.9372549"/><feFuncG type="linear" slope="0" intercept="0.9372549"/><feFuncB type="linear" slope="0" intercept="0.9372549"/><feFuncA type="linear" slope="0.5" intercept="0"/></feComponentTransfer></filter></defs><g id="g9fc358e7d4_0_49.6"><path fill="#e06666" d="m166.93701 93.080055l0 -64.62993l-33.10237 64.62993z" fill-rule="evenodd"/></g><path fill="#000000" fill-opacity="0.0" d="m-207.27559 121.21916l894.55115 0l0 90.3307l-894.55115 0z" fill-rule="evenodd"/><path fill="#ffffff" d="m78.360214 187.07861q-5.890625 0 -11.4375 -1.453125q-5.546875 -1.453125 -9.015625 -3.890625l4.515625 -10.109375q3.25 2.140625 7.546875 3.46875q4.296875 1.3125 8.46875 1.3125q7.890625 0 7.890625 -3.953125q0 -2.078125 -2.25 -3.078125q-2.25 -1.015625 -7.25 -2.125q-5.46875 -1.171875 -9.140625 -2.515625q-3.671875 -1.359375 -6.3125 -4.34375q-2.640625 -2.984375 -2.640625 -8.046875q0 -4.4375 2.421875 -8.0q2.4375 -3.578125 7.25 -5.65625q4.828125 -2.078125 11.828125 -2.078125q4.78125 0 9.421875 1.078125q4.65625 1.078125 8.1875 3.15625l-4.234375 10.1875q-6.921875 -3.75 -13.453125 -3.75q-4.078125 0 -5.953125 1.21875q-1.875 1.21875 -1.875 3.15625q0 1.9375 2.21875 2.90625q2.21875 0.96875 7.140625 2.015625q5.546875 1.171875 9.1875 2.53125q3.640625 1.34375 6.3125 4.296875q2.671875 2.9375 2.671875 8.0q0 4.375 -2.4375 7.90625q-2.421875 3.53125 -7.28125 5.65625q-4.84375 2.109375 -11.78125 2.109375zm71.62088 -0.96875l-0.140625 -25.71875l-12.484375 20.9375l-6.09375 0l-12.40625 -20.25l0 25.03125l-12.6875 0l0 -48.53125l11.296875 0l17.046875 28.015625l16.640625 -28.015625l11.296875 0l0.140625 48.53125l-12.609375 0zm46.795227 0.96875q-7.703125 0 -13.84375 -3.25q-6.125 -3.265625 -9.625 -9.015625q-3.5 -5.765625 -3.5 -12.96875q0 -7.203125 3.5 -12.953125q3.5 -5.765625 9.625 -9.015625q6.140625 -3.265625 13.84375 -3.265625q7.6875 0 13.828125 3.265625q6.140625 3.25 9.640625 9.015625q3.5 5.75 3.5 12.953125q0 7.203125 -3.5 12.96875q-3.5 5.75 -9.640625 9.015625q-6.140625 3.25 -13.828125 3.25zm0 -11.375q3.671875 0 6.65625 -1.71875q2.984375 -1.734375 4.703125 -4.890625q1.734375 -3.15625 1.734375 -7.25q0 -4.09375 -1.734375 -7.234375q-1.71875 -3.15625 -4.703125 -4.890625q-2.984375 -1.734375 -6.65625 -1.734375q-3.671875 0 -6.65625 1.734375q-2.984375 1.734375 -4.71875 4.890625q-1.734375 3.140625 -1.734375 7.234375q0 4.09375 1.734375 7.25q1.734375 3.15625 4.71875 4.890625q2.984375 1.71875 6.65625 1.71875zm34.1828 -38.125l13.71875 0l0 37.640625l23.156235 0l0 10.890625l-36.874985 0l0 -48.53125zm42.290115 0l22.9375 0q7.96875 0 14.140625 2.984375q6.171875 2.984375 9.5625 8.46875q3.40625 5.46875 3.40625 12.8125q0 7.34375 -3.40625 12.828125q-3.390625 5.46875 -9.5625 8.453125q-6.171875 2.984375 -14.140625 2.984375l-22.9375 0l0 -48.53125zm22.390625 37.578125q6.234375 0 10.015625 -3.53125q3.78125 -3.546875 3.78125 -9.78125q0 -6.234375 -3.78125 -9.765625q-3.78125 -3.546875 -10.015625 -3.546875l-8.671875 0l0 26.625l8.671875 0zm73.82745 0.34375l0 10.609375l-38.953125 0l0 -48.53125l38.0625 0l0 10.609375l-24.484375 0l0 8.1875l21.5625 0l0 10.25l-21.5625 0l0 8.875l25.375 0zm28.838501 -2.28125l-7.484375 0l0 12.890625l-13.71875 0l0 -48.53125l22.171875 0q6.59375 0 11.4375 2.1875q4.859375 2.1875 7.484375 6.25q2.640625 4.046875 2.640625 9.515625q0 5.265625 -2.46875 9.1875q-2.453125 3.921875 -7.03125 6.140625l10.46875 15.25l-14.6875 0l-8.8125 -12.890625zm8.671875 -17.6875q0 -3.390625 -2.15625 -5.265625q-2.140625 -1.875 -6.375 -1.875l-7.625 0l0 14.21875l7.625 0q4.234375 0 6.375 -1.828125q2.15625 -1.84375 2.15625 -5.25z" fill-rule="nonzero"/><g filter="url(#shadowFilter-g9fc358e7d4_0_49.7)"><use xlink:href="#g9fc358e7d4_0_49.7" transform=""/></g><defs><filter id="shadowFilter-g9fc358e7d4_0_49.7" filterUnits="userSpaceOnUse"><feGaussianBlur in="SourceAlpha" stdDeviation="1.5" result="blur"/><feComponentTransfer in="blur" color-interpolation-filters="sRGB"><feFuncR type="linear" slope="0" intercept="0.9372549"/><feFuncG type="linear" slope="0" intercept="0.9372549"/><feFuncB type="linear" slope="0" intercept="0.9372549"/><feFuncA type="linear" slope="0.5" intercept="0"/></feComponentTransfer></filter></defs><g id="g9fc358e7d4_0_49.7"><path fill="#cc4125" d="m124.72966 114.91207l0 -64.62991l33.102356 64.62991z" fill-rule="evenodd"/></g><g filter="url(#shadowFilter-g9fc358e7d4_0_49.8)"><use xlink:href="#g9fc358e7d4_0_49.8" transform=""/></g><defs><filter id="shadowFilter-g9fc358e7d4_0_49.8" filterUnits="userSpaceOnUse"><feGaussianBlur in="SourceAlpha" stdDeviation="1.5" result="blur"/><feComponentTransfer in="blur" color-interpolation-filters="sRGB"><feFuncR type="linear" slope="0" intercept="0.9372549"/><feFuncG type="linear" slope="0" intercept="0.9372549"/><feFuncB type="linear" slope="0" intercept="0.9372549"/><feFuncA type="linear" slope="0.5" intercept="0"/></feComponentTransfer></filter></defs><g id="g9fc358e7d4_0_49.8"><path fill="#a61c00" d="m117.83202 114.91207l0 -64.62991l-33.102364 64.62991z" fill-rule="evenodd"/></g><g filter="url(#shadowFilter-g9fc358e7d4_0_49.9)"><use xlink:href="#g9fc358e7d4_0_49.9" transform=""/></g><defs><filter id="shadowFilter-g9fc358e7d4_0_49.9" filterUnits="userSpaceOnUse"><feGaussianBlur in="SourceAlpha" stdDeviation="1.5" result="blur"/><feComponentTransfer in="blur" color-interpolation-filters="sRGB"><feFuncR type="linear" slope="0" intercept="0.9372549"/><feFuncG type="linear" slope="0" intercept="0.9372549"/><feFuncB type="linear" slope="0" intercept="0.9372549"/><feFuncA type="linear" slope="0.5" intercept="0"/></feComponentTransfer></filter></defs><g id="g9fc358e7d4_0_49.9"><path fill="#cc0000" d="m213.83464 125.080055l0 -64.62993l33.10237 64.62993z" fill-rule="evenodd"/></g><g filter="url(#shadowFilter-g9fc358e7d4_0_49.10)"><use xlink:href="#g9fc358e7d4_0_49.10" transform=""/></g><defs><filter id="shadowFilter-g9fc358e7d4_0_49.10" filterUnits="userSpaceOnUse"><feGaussianBlur in="SourceAlpha" stdDeviation="1.5" result="blur"/><feComponentTransfer in="blur" color-interpolation-filters="sRGB"><feFuncR type="linear" slope="0" intercept="0.9372549"/><feFuncG type="linear" slope="0" intercept="0.9372549"/><feFuncB type="linear" slope="0" intercept="0.9372549"/><feFuncA type="linear" slope="0.5" intercept="0"/></feComponentTransfer></filter></defs><g id="g9fc358e7d4_0_49.10"><path fill="#b45f06" d="m206.93701 125.080055l0 -64.62993l-33.10237 64.62993z" fill-rule="evenodd"/></g><g filter="url(#shadowFilter-g9fc358e7d4_0_49.11)"><use xlink:href="#g9fc358e7d4_0_49.11" transform=""/></g><defs><filter id="shadowFilter-g9fc358e7d4_0_49.11" filterUnits="userSpaceOnUse"><feGaussianBlur in="SourceAlpha" stdDeviation="1.5" result="blur"/><feComponentTransfer in="blur" color-interpolation-filters="sRGB"><feFuncR type="linear" slope="0" intercept="0.9372549"/><feFuncG type="linear" slope="0" intercept="0.9372549"/><feFuncB type="linear" slope="0" intercept="0.9372549"/><feFuncA type="linear" slope="0.5" intercept="0"/></feComponentTransfer></filter></defs><g id="g9fc358e7d4_0_49.11"><path fill="#e06666" d="m365.83466 117.080055l0 -64.62993l33.102356 64.62993z" fill-rule="evenodd"/></g><g filter="url(#shadowFilter-g9fc358e7d4_0_49.12)"><use xlink:href="#g9fc358e7d4_0_49.12" transform=""/></g><defs><filter id="shadowFilter-g9fc358e7d4_0_49.12" filterUnits="userSpaceOnUse"><feGaussianBlur in="SourceAlpha" stdDeviation="1.5" result="blur"/><feComponentTransfer in="blur" color-interpolation-filters="sRGB"><feFuncR type="linear" slope="0" intercept="0.9372549"/><feFuncG type="linear" slope="0" intercept="0.9372549"/><feFuncB type="linear" slope="0" intercept="0.9372549"/><feFuncA type="linear" slope="0.5" intercept="0"/></feComponentTransfer></filter></defs><g id="g9fc358e7d4_0_49.12"><path fill="#cc4125" d="m358.937 117.080055l0 -64.62993l-33.102356 64.62993z" fill-rule="evenodd"/></g></g></svg>